<svg width="454" height="64" viewBox="0 0 454 64" fill="none" xmlns="http://www.w3.org/2000/svg">
<rect x="310" width="144" height="64" fill="#FFD3AF"/>
<path opacity="0.87" d="M350.528 34.992C350.528 35.5467 350.395 36.064 350.128 36.544C349.861 37.0133 349.456 37.392 348.912 37.68C348.368 37.968 347.701 38.112 346.912 38.112C346.144 38.112 345.456 37.9787 344.848 37.712C344.24 37.4347 343.755 37.0507 343.392 36.56C343.029 36.0693 342.821 35.504 342.768 34.864H344.72C344.773 35.3547 344.981 35.776 345.344 36.128C345.717 36.48 346.213 36.656 346.832 36.656C347.387 36.656 347.813 36.5067 348.112 36.208C348.421 35.9093 348.576 35.5253 348.576 35.056C348.576 34.6507 348.464 34.32 348.24 34.064C348.016 33.7973 347.739 33.5893 347.408 33.44C347.077 33.2907 346.624 33.12 346.048 32.928C345.344 32.704 344.768 32.48 344.32 32.256C343.883 32.032 343.509 31.7067 343.2 31.28C342.891 30.8533 342.736 30.2933 342.736 29.6C342.736 28.992 342.885 28.4587 343.184 28C343.483 27.5413 343.909 27.1893 344.464 26.944C345.019 26.688 345.659 26.56 346.384 26.56C347.536 26.56 348.448 26.8373 349.12 27.392C349.803 27.9467 350.192 28.672 350.288 29.568H348.32C348.245 29.1413 348.043 28.7787 347.712 28.48C347.392 28.1707 346.949 28.016 346.384 28.016C345.872 28.016 345.461 28.1493 345.152 28.416C344.843 28.672 344.688 29.0453 344.688 29.536C344.688 29.92 344.795 30.24 345.008 30.496C345.221 30.7413 345.488 30.9387 345.808 31.088C346.139 31.2267 346.587 31.392 347.152 31.584C347.867 31.808 348.448 32.0373 348.896 32.272C349.355 32.496 349.739 32.8267 350.048 33.264C350.368 33.7013 350.528 34.2773 350.528 34.992ZM360.482 29.184V38H358.642V36.08C358.418 36.7307 358.029 37.2373 357.474 37.6C356.919 37.952 356.274 38.128 355.538 38.128C354.514 38.128 353.693 37.7973 353.074 37.136C352.455 36.4747 352.146 35.5307 352.146 34.304V29.184H353.97V34.112C353.97 34.912 354.173 35.5307 354.578 35.968C354.983 36.3947 355.538 36.608 356.242 36.608C356.967 36.608 357.549 36.3733 357.986 35.904C358.423 35.4347 358.642 34.752 358.642 33.856V29.184H360.482ZM367.723 29.072C368.491 29.072 369.173 29.2533 369.771 29.616C370.379 29.9787 370.853 30.5013 371.195 31.184C371.536 31.8667 371.707 32.6667 371.707 33.584C371.707 34.512 371.536 35.3173 371.195 36C370.853 36.6827 370.379 37.2053 369.771 37.568C369.173 37.9307 368.491 38.112 367.723 38.112C366.923 38.112 366.24 37.9147 365.674 37.52C365.109 37.1253 364.715 36.6027 364.491 35.952V38H362.667V26.16H364.491V31.232C364.715 30.5813 365.109 30.0587 365.674 29.664C366.24 29.2693 366.923 29.072 367.723 29.072ZM367.163 30.672C366.651 30.672 366.192 30.7947 365.786 31.04C365.381 31.2747 365.061 31.616 364.827 32.064C364.592 32.5013 364.475 33.008 364.475 33.584C364.475 34.1707 364.592 34.6827 364.827 35.12C365.061 35.5573 365.381 35.8987 365.786 36.144C366.192 36.3787 366.651 36.496 367.163 36.496C367.973 36.496 368.624 36.24 369.115 35.728C369.605 35.2053 369.851 34.4907 369.851 33.584C369.851 32.688 369.605 31.9787 369.115 31.456C368.624 30.9333 367.973 30.672 367.163 30.672ZM376.359 29.072C377.394 29.072 378.221 29.3387 378.839 29.872C379.469 30.3947 379.853 31.0987 379.991 31.984H378.263C378.189 31.504 377.981 31.12 377.639 30.832C377.309 30.5333 376.866 30.384 376.311 30.384C375.853 30.384 375.495 30.496 375.239 30.72C374.994 30.9333 374.871 31.2267 374.871 31.6C374.871 31.8773 374.962 32.1013 375.143 32.272C375.325 32.4427 375.549 32.576 375.815 32.672C376.093 32.768 376.482 32.8747 376.983 32.992C377.645 33.1413 378.178 33.296 378.583 33.456C378.999 33.616 379.351 33.872 379.639 34.224C379.938 34.5653 380.087 35.0347 380.087 35.632C380.087 36.368 379.805 36.9653 379.239 37.424C378.685 37.8827 377.933 38.112 376.983 38.112C375.885 38.112 374.994 37.856 374.311 37.344C373.639 36.832 373.234 36.1173 373.095 35.2H374.871C374.925 35.68 375.138 36.0693 375.511 36.368C375.885 36.6667 376.375 36.816 376.983 36.816C377.421 36.816 377.762 36.704 378.007 36.48C378.263 36.2453 378.391 35.952 378.391 35.6C378.391 35.2907 378.295 35.0453 378.103 34.864C377.911 34.6827 377.671 34.544 377.383 34.448C377.095 34.3413 376.701 34.2347 376.199 34.128C375.559 33.9787 375.037 33.8293 374.631 33.68C374.237 33.5307 373.895 33.2907 373.607 32.96C373.33 32.6187 373.191 32.16 373.191 31.584C373.191 30.8373 373.469 30.2347 374.023 29.776C374.589 29.3067 375.367 29.072 376.359 29.072ZM385.837 29.072C386.978 29.072 387.922 29.376 388.669 29.984C389.415 30.5813 389.879 31.3973 390.061 32.432H388.125C388.018 31.8773 387.757 31.4453 387.341 31.136C386.935 30.816 386.423 30.656 385.805 30.656C385.101 30.656 384.514 30.9067 384.045 31.408C383.575 31.8987 383.341 32.624 383.341 33.584C383.341 34.544 383.575 35.2747 384.045 35.776C384.514 36.2773 385.101 36.528 385.805 36.528C386.423 36.528 386.935 36.368 387.341 36.048C387.757 35.728 388.018 35.2907 388.125 34.736H390.061C389.879 35.7707 389.415 36.592 388.669 37.2C387.922 37.808 386.978 38.112 385.837 38.112C384.983 38.112 384.226 37.9307 383.565 37.568C382.914 37.2053 382.402 36.6827 382.029 36C381.655 35.3173 381.469 34.512 381.469 33.584C381.469 32.6667 381.655 31.8667 382.029 31.184C382.402 30.5013 382.914 29.9787 383.565 29.616C384.226 29.2533 384.983 29.072 385.837 29.072ZM393.647 30.912C393.945 30.336 394.372 29.8827 394.927 29.552C395.481 29.2107 396.121 29.04 396.847 29.04V31.024H396.303C395.503 31.024 394.857 31.2213 394.367 31.616C393.887 32 393.647 32.64 393.647 33.536V38H391.823V29.184H393.647V30.912ZM397.957 26.624C397.957 26.3147 398.064 26.0587 398.277 25.856C398.491 25.6533 398.773 25.552 399.125 25.552C399.477 25.552 399.76 25.6533 399.973 25.856C400.197 26.0587 400.309 26.3147 400.309 26.624C400.309 26.9333 400.197 27.184 399.973 27.376C399.76 27.568 399.477 27.664 399.125 27.664C398.773 27.664 398.491 27.568 398.277 27.376C398.064 27.184 397.957 26.9333 397.957 26.624ZM400.037 29.184V38H398.213V29.184H400.037ZM407.301 29.072C408.069 29.072 408.751 29.2533 409.349 29.616C409.957 29.9787 410.431 30.5013 410.773 31.184C411.114 31.8667 411.285 32.6667 411.285 33.584C411.285 34.512 411.114 35.3173 410.773 36C410.431 36.6827 409.957 37.2053 409.349 37.568C408.751 37.9307 408.069 38.112 407.301 38.112C406.501 38.112 405.818 37.9147 405.253 37.52C404.687 37.1253 404.293 36.6027 404.069 35.952V38H402.245V26.16H404.069V31.232C404.293 30.5813 404.687 30.0587 405.253 29.664C405.818 29.2693 406.501 29.072 407.301 29.072ZM406.741 30.672C406.229 30.672 405.77 30.7947 405.365 31.04C404.959 31.2747 404.639 31.616 404.405 32.064C404.17 32.5013 404.053 33.008 404.053 33.584C404.053 34.1707 404.17 34.6827 404.405 35.12C404.639 35.5573 404.959 35.8987 405.365 36.144C405.77 36.3787 406.229 36.496 406.741 36.496C407.551 36.496 408.202 36.24 408.693 35.728C409.183 35.2053 409.429 34.4907 409.429 33.584C409.429 32.688 409.183 31.9787 408.693 31.456C408.202 30.9333 407.551 30.672 406.741 30.672ZM421.234 33.168C421.234 33.4667 421.212 33.728 421.17 33.952H414.386C414.418 34.8587 414.668 35.5307 415.138 35.968C415.607 36.4053 416.188 36.624 416.882 36.624C417.49 36.624 418.002 36.4693 418.418 36.16C418.844 35.8507 419.106 35.44 419.202 34.928H421.154C421.036 35.5467 420.791 36.096 420.418 36.576C420.044 37.056 419.559 37.4347 418.962 37.712C418.364 37.9787 417.698 38.112 416.962 38.112C416.108 38.112 415.351 37.9307 414.69 37.568C414.039 37.2053 413.527 36.6827 413.154 36C412.78 35.3173 412.594 34.512 412.594 33.584C412.594 32.6667 412.78 31.8667 413.154 31.184C413.527 30.5013 414.039 29.9787 414.69 29.616C415.351 29.2533 416.108 29.072 416.962 29.072C417.826 29.072 418.578 29.2533 419.218 29.616C419.868 29.968 420.364 30.4587 420.706 31.088C421.058 31.7067 421.234 32.4 421.234 33.168ZM419.394 33.12C419.415 32.544 419.314 32.064 419.09 31.68C418.876 31.2853 418.578 30.9973 418.194 30.816C417.82 30.624 417.41 30.528 416.962 30.528C416.247 30.528 415.65 30.7467 415.17 31.184C414.69 31.6213 414.428 32.2667 414.386 33.12H419.394Z" fill="#232536"/>
<rect width="454" height="64" fill="white"/>
<path opacity="0.4" d="M32.553 33.616V38H30.729V26.704H34.569C35.8703 26.704 36.8463 27.0133 37.497 27.632C38.1583 28.2507 38.489 29.0987 38.489 30.176C38.489 31.2427 38.153 32.0853 37.481 32.704C36.809 33.312 35.8383 33.616 34.569 33.616H32.553ZM34.377 32.128C35.881 32.128 36.633 31.4773 36.633 30.176C36.633 29.536 36.4517 29.0507 36.089 28.72C35.737 28.3787 35.1663 28.208 34.377 28.208H32.553V32.128H34.377ZM43.6244 29.072C44.4244 29.072 45.107 29.2693 45.6724 29.664C46.2377 30.0587 46.6377 30.5813 46.8724 31.232V29.184H48.6964V38H46.8724V35.952C46.6377 36.6027 46.2377 37.1253 45.6724 37.52C45.107 37.9147 44.4244 38.112 43.6244 38.112C42.8564 38.112 42.1684 37.9307 41.5604 37.568C40.963 37.2053 40.4937 36.6827 40.1524 36C39.811 35.3173 39.6404 34.512 39.6404 33.584C39.6404 32.6667 39.811 31.8667 40.1524 31.184C40.4937 30.5013 40.963 29.9787 41.5604 29.616C42.1684 29.2533 42.8564 29.072 43.6244 29.072ZM44.1844 30.672C43.3737 30.672 42.723 30.9333 42.2324 31.456C41.7524 31.968 41.5124 32.6773 41.5124 33.584C41.5124 34.4907 41.7524 35.2053 42.2324 35.728C42.723 36.24 43.3737 36.496 44.1844 36.496C44.6964 36.496 45.155 36.3787 45.5604 36.144C45.9657 35.8987 46.2857 35.5573 46.5204 35.12C46.755 34.6827 46.8724 34.1707 46.8724 33.584C46.8724 33.008 46.755 32.5013 46.5204 32.064C46.2857 31.616 45.9657 31.2747 45.5604 31.04C45.155 30.7947 44.6964 30.672 44.1844 30.672ZM52.7093 30.912C53.0079 30.336 53.4346 29.8827 53.9893 29.552C54.5439 29.2107 55.1839 29.04 55.9093 29.04V31.024H55.3653C54.5653 31.024 53.9199 31.2213 53.4293 31.616C52.9493 32 52.7093 32.64 52.7093 33.536V38H50.8853V29.184H52.7093V30.912ZM65.4679 33.168C65.4679 33.4667 65.4465 33.728 65.4039 33.952H58.6199C58.6519 34.8587 58.9025 35.5307 59.3719 35.968C59.8412 36.4053 60.4225 36.624 61.1159 36.624C61.7239 36.624 62.2359 36.4693 62.6519 36.16C63.0785 35.8507 63.3399 35.44 63.4359 34.928H65.3879C65.2705 35.5467 65.0252 36.096 64.6519 36.576C64.2785 37.056 63.7932 37.4347 63.1959 37.712C62.5985 37.9787 61.9319 38.112 61.1959 38.112C60.3425 38.112 59.5852 37.9307 58.9239 37.568C58.2732 37.2053 57.7612 36.6827 57.3879 36C57.0145 35.3173 56.8279 34.512 56.8279 33.584C56.8279 32.6667 57.0145 31.8667 57.3879 31.184C57.7612 30.5013 58.2732 29.9787 58.9239 29.616C59.5852 29.2533 60.3425 29.072 61.1959 29.072C62.0599 29.072 62.8119 29.2533 63.4519 29.616C64.1025 29.968 64.5985 30.4587 64.9399 31.088C65.2919 31.7067 65.4679 32.4 65.4679 33.168ZM63.6279 33.12C63.6492 32.544 63.5479 32.064 63.3239 31.68C63.1105 31.2853 62.8119 30.9973 62.4279 30.816C62.0545 30.624 61.6439 30.528 61.1959 30.528C60.4812 30.528 59.8839 30.7467 59.4039 31.184C58.9239 31.6213 58.6625 32.2667 58.6199 33.12H63.6279ZM70.125 29.072C71.1597 29.072 71.9863 29.3387 72.605 29.872C73.2343 30.3947 73.6183 31.0987 73.757 31.984H72.029C71.9543 31.504 71.7463 31.12 71.405 30.832C71.0743 30.5333 70.6317 30.384 70.077 30.384C69.6183 30.384 69.261 30.496 69.005 30.72C68.7597 30.9333 68.637 31.2267 68.637 31.6C68.637 31.8773 68.7277 32.1013 68.909 32.272C69.0903 32.4427 69.3143 32.576 69.581 32.672C69.8583 32.768 70.2477 32.8747 70.749 32.992C71.4103 33.1413 71.9437 33.296 72.349 33.456C72.765 33.616 73.117 33.872 73.405 34.224C73.7037 34.5653 73.853 35.0347 73.853 35.632C73.853 36.368 73.5703 36.9653 73.005 37.424C72.4503 37.8827 71.6983 38.112 70.749 38.112C69.6503 38.112 68.7597 37.856 68.077 37.344C67.405 36.832 66.9997 36.1173 66.861 35.2H68.637C68.6903 35.68 68.9037 36.0693 69.277 36.368C69.6503 36.6667 70.141 36.816 70.749 36.816C71.1863 36.816 71.5277 36.704 71.773 36.48C72.029 36.2453 72.157 35.952 72.157 35.6C72.157 35.2907 72.061 35.0453 71.869 34.864C71.677 34.6827 71.437 34.544 71.149 34.448C70.861 34.3413 70.4663 34.2347 69.965 34.128C69.325 33.9787 68.8023 33.8293 68.397 33.68C68.0023 33.5307 67.661 33.2907 67.373 32.96C67.0957 32.6187 66.957 32.16 66.957 31.584C66.957 30.8373 67.2343 30.2347 67.789 29.776C68.3543 29.3067 69.133 29.072 70.125 29.072ZM80.6101 29.04C81.6341 29.04 82.4555 29.3707 83.0741 30.032C83.6928 30.6933 84.0021 31.6373 84.0021 32.864V38H82.1781V33.056C82.1781 32.2667 81.9755 31.6587 81.5701 31.232C81.1648 30.7947 80.6101 30.576 79.9061 30.576C79.1808 30.576 78.5995 30.8107 78.1621 31.28C77.7248 31.7387 77.5061 32.416 77.5061 33.312V38H75.6821V26.16H77.5061V31.12C77.7408 30.4587 78.1355 29.9467 78.6901 29.584C79.2448 29.2213 79.8848 29.04 80.6101 29.04ZM95.3673 25.232C97.0206 25.232 98.4446 25.5253 99.6393 26.112C100.834 26.6987 101.741 27.5413 102.359 28.64C102.989 29.728 103.303 31.0187 103.303 32.512C103.303 33.5573 103.106 34.512 102.711 35.376C102.327 36.2293 101.805 36.9067 101.143 37.408C100.493 37.8987 99.7939 38.144 99.0473 38.144C98.3539 38.144 97.8046 37.9787 97.3993 37.648C97.0046 37.3173 96.8019 36.7787 96.7913 36.032C96.0233 37.44 94.8979 38.144 93.4153 38.144C92.7539 38.144 92.1673 37.984 91.6553 37.664C91.1433 37.344 90.7433 36.896 90.4553 36.32C90.1673 35.7333 90.0233 35.0613 90.0233 34.304C90.0233 33.3013 90.2366 32.4 90.6633 31.6C91.0899 30.8 91.6766 30.176 92.4233 29.728C93.1699 29.2693 94.0019 29.04 94.9193 29.04C95.6979 29.04 96.3699 29.1893 96.9353 29.488C97.5006 29.7867 97.9326 30.208 98.2313 30.752C98.5299 31.2853 98.6793 31.904 98.6793 32.608C98.6793 32.832 98.6633 33.072 98.6313 33.328L98.3273 35.264C98.3059 35.456 98.2953 35.5893 98.2953 35.664C98.2953 35.984 98.3699 36.2133 98.5193 36.352C98.6686 36.48 98.8819 36.544 99.1593 36.544C99.5539 36.544 99.9219 36.3893 100.263 36.08C100.615 35.7707 100.898 35.3173 101.111 34.72C101.325 34.112 101.431 33.3973 101.431 32.576C101.431 31.4027 101.191 30.3787 100.711 29.504C100.231 28.6293 99.5166 27.952 98.5673 27.472C97.6179 26.9813 96.4659 26.736 95.1113 26.736C93.5326 26.736 92.1726 27.072 91.0313 27.744C89.9006 28.4053 89.0419 29.312 88.4553 30.464C87.8686 31.6053 87.5753 32.8907 87.5753 34.32C87.5753 36.368 88.1619 37.9307 89.3353 39.008C90.5086 40.096 92.1993 40.6453 94.4073 40.656L94.0553 42.176C92.3166 42.1547 90.8286 41.8347 89.5913 41.216C88.3539 40.608 87.4099 39.7173 86.7593 38.544C86.1086 37.3813 85.7833 35.9733 85.7833 34.32C85.7833 32.56 86.1939 30.992 87.0153 29.616C87.8366 28.2293 88.9726 27.152 90.4233 26.384C91.8846 25.616 93.5326 25.232 95.3673 25.232ZM94.0233 36.544C94.5353 36.544 95.0099 36.4053 95.4473 36.128C95.8846 35.8507 96.2313 35.4453 96.4873 34.912C96.7539 34.368 96.8873 33.7333 96.8873 33.008C96.8873 32.272 96.6846 31.696 96.2793 31.28C95.8739 30.864 95.3193 30.656 94.6153 30.656C94.0926 30.656 93.6179 30.7947 93.1913 31.072C92.7646 31.3493 92.4233 31.7493 92.1673 32.272C91.9219 32.784 91.7993 33.3867 91.7993 34.08C91.7993 34.8373 92.0019 35.44 92.4073 35.888C92.8233 36.3253 93.3619 36.544 94.0233 36.544ZM106.819 33.616V38H104.995V26.704H108.835C110.136 26.704 111.112 27.0133 111.763 27.632C112.424 28.2507 112.755 29.0987 112.755 30.176C112.755 31.2427 112.419 32.0853 111.747 32.704C111.075 33.312 110.104 33.616 108.835 33.616H106.819ZM108.643 32.128C110.147 32.128 110.899 31.4773 110.899 30.176C110.899 29.536 110.717 29.0507 110.355 28.72C110.003 28.3787 109.432 28.208 108.643 28.208H106.819V32.128H108.643ZM114.098 26.624C114.098 26.3147 114.205 26.0587 114.418 25.856C114.631 25.6533 114.914 25.552 115.266 25.552C115.618 25.552 115.901 25.6533 116.114 25.856C116.338 26.0587 116.45 26.3147 116.45 26.624C116.45 26.9333 116.338 27.184 116.114 27.376C115.901 27.568 115.618 27.664 115.266 27.664C114.914 27.664 114.631 27.568 114.418 27.376C114.205 27.184 114.098 26.9333 114.098 26.624ZM116.178 29.184V38H114.354V29.184H116.178ZM123.601 38L121.441 34.88L119.553 38H117.521L120.433 33.424L117.489 29.184H119.553L121.665 32.224L123.537 29.184H125.553L122.641 33.632L125.665 38H123.601ZM135.124 33.168C135.124 33.4667 135.103 33.728 135.06 33.952H128.276C128.308 34.8587 128.559 35.5307 129.028 35.968C129.497 36.4053 130.079 36.624 130.772 36.624C131.38 36.624 131.892 36.4693 132.308 36.16C132.735 35.8507 132.996 35.44 133.092 34.928H135.044C134.927 35.5467 134.681 36.096 134.308 36.576C133.935 37.056 133.449 37.4347 132.852 37.712C132.255 37.9787 131.588 38.112 130.852 38.112C129.999 38.112 129.241 37.9307 128.58 37.568C127.929 37.2053 127.417 36.6827 127.044 36C126.671 35.3173 126.484 34.512 126.484 33.584C126.484 32.6667 126.671 31.8667 127.044 31.184C127.417 30.5013 127.929 29.9787 128.58 29.616C129.241 29.2533 129.999 29.072 130.852 29.072C131.716 29.072 132.468 29.2533 133.108 29.616C133.759 29.968 134.255 30.4587 134.596 31.088C134.948 31.7067 135.124 32.4 135.124 33.168ZM133.284 33.12C133.305 32.544 133.204 32.064 132.98 31.68C132.767 31.2853 132.468 30.9973 132.084 30.816C131.711 30.624 131.3 30.528 130.852 30.528C130.137 30.528 129.54 30.7467 129.06 31.184C128.58 31.6213 128.319 32.2667 128.276 33.12H133.284ZM141.317 36.416V38H140.197C139.259 38 138.544 37.776 138.053 37.328C137.573 36.8693 137.333 36.112 137.333 35.056V30.736H136.069V29.184H137.333V26.992H139.173V29.184H141.301V30.736H139.173V35.088C139.173 35.5893 139.264 35.936 139.445 36.128C139.637 36.32 139.968 36.416 140.437 36.416H141.317ZM147.058 29.072C147.911 29.072 148.679 29.2533 149.362 29.616C150.045 29.9787 150.578 30.5013 150.962 31.184C151.346 31.8667 151.538 32.6667 151.538 33.584C151.538 34.512 151.346 35.3173 150.962 36C150.578 36.6827 150.045 37.2053 149.362 37.568C148.679 37.9307 147.911 38.112 147.058 38.112C146.205 38.112 145.437 37.9307 144.754 37.568C144.082 37.2053 143.549 36.6827 143.154 36C142.77 35.3067 142.578 34.5013 142.578 33.584C142.578 32.6667 142.77 31.8667 143.154 31.184C143.549 30.5013 144.082 29.9787 144.754 29.616C145.437 29.2533 146.205 29.072 147.058 29.072ZM147.058 30.656C146.589 30.656 146.157 30.7627 145.762 30.976C145.367 31.1893 145.047 31.52 144.802 31.968C144.567 32.4053 144.45 32.944 144.45 33.584C144.45 34.2347 144.567 34.7787 144.802 35.216C145.047 35.6533 145.367 35.9787 145.762 36.192C146.157 36.4053 146.589 36.512 147.058 36.512C147.527 36.512 147.959 36.4053 148.354 36.192C148.749 35.9787 149.063 35.6533 149.298 35.216C149.543 34.7787 149.666 34.2347 149.666 33.584C149.666 32.944 149.543 32.4053 149.298 31.968C149.063 31.52 148.749 31.1893 148.354 30.976C147.959 30.7627 147.527 30.656 147.058 30.656ZM154.732 35.984V38H152.668V35.984H154.732ZM160.258 29.072C161.4 29.072 162.344 29.376 163.09 29.984C163.837 30.5813 164.301 31.3973 164.482 32.432H162.546C162.44 31.8773 162.178 31.4453 161.762 31.136C161.357 30.816 160.845 30.656 160.226 30.656C159.522 30.656 158.936 30.9067 158.466 31.408C157.997 31.8987 157.762 32.624 157.762 33.584C157.762 34.544 157.997 35.2747 158.466 35.776C158.936 36.2773 159.522 36.528 160.226 36.528C160.845 36.528 161.357 36.368 161.762 36.048C162.178 35.728 162.44 35.2907 162.546 34.736H164.482C164.301 35.7707 163.837 36.592 163.09 37.2C162.344 37.808 161.4 38.112 160.258 38.112C159.405 38.112 158.648 37.9307 157.986 37.568C157.336 37.2053 156.824 36.6827 156.45 36C156.077 35.3173 155.89 34.512 155.89 33.584C155.89 32.6667 156.077 31.8667 156.45 31.184C156.824 30.5013 157.336 29.9787 157.986 29.616C158.648 29.2533 159.405 29.072 160.258 29.072ZM170.277 29.072C171.13 29.072 171.898 29.2533 172.581 29.616C173.263 29.9787 173.797 30.5013 174.181 31.184C174.565 31.8667 174.757 32.6667 174.757 33.584C174.757 34.512 174.565 35.3173 174.181 36C173.797 36.6827 173.263 37.2053 172.581 37.568C171.898 37.9307 171.13 38.112 170.277 38.112C169.423 38.112 168.655 37.9307 167.973 37.568C167.301 37.2053 166.767 36.6827 166.373 36C165.989 35.3067 165.797 34.5013 165.797 33.584C165.797 32.6667 165.989 31.8667 166.373 31.184C166.767 30.5013 167.301 29.9787 167.973 29.616C168.655 29.2533 169.423 29.072 170.277 29.072ZM170.277 30.656C169.807 30.656 169.375 30.7627 168.981 30.976C168.586 31.1893 168.266 31.52 168.021 31.968C167.786 32.4053 167.669 32.944 167.669 33.584C167.669 34.2347 167.786 34.7787 168.021 35.216C168.266 35.6533 168.586 35.9787 168.981 36.192C169.375 36.4053 169.807 36.512 170.277 36.512C170.746 36.512 171.178 36.4053 171.573 36.192C171.967 35.9787 172.282 35.6533 172.517 35.216C172.762 34.7787 172.885 34.2347 172.885 33.584C172.885 32.944 172.762 32.4053 172.517 31.968C172.282 31.52 171.967 31.1893 171.573 30.976C171.178 30.7627 170.746 30.656 170.277 30.656ZM187.534 29.04C188.58 29.04 189.412 29.3707 190.03 30.032C190.66 30.6933 190.974 31.6373 190.974 32.864V38H189.15V33.056C189.15 32.288 188.958 31.696 188.574 31.28C188.19 30.8533 187.662 30.64 186.99 30.64C186.276 30.64 185.705 30.8693 185.278 31.328C184.862 31.776 184.654 32.4373 184.654 33.312V38H182.83V33.056C182.83 32.288 182.638 31.696 182.254 31.28C181.87 30.8533 181.342 30.64 180.67 30.64C179.956 30.64 179.385 30.8693 178.958 31.328C178.542 31.776 178.334 32.4373 178.334 33.312V38H176.51V29.184H178.334V31.024C178.558 30.384 178.932 29.8933 179.454 29.552C179.977 29.2107 180.59 29.04 181.294 29.04C182.03 29.04 182.665 29.2213 183.198 29.584C183.742 29.9467 184.137 30.4693 184.382 31.152C184.638 30.4907 185.049 29.9733 185.614 29.6C186.18 29.2267 186.82 29.04 187.534 29.04Z" fill="#232536"/>
</svg>
